# xmcd CD database file
#
# Track frame offsets:
#	150
#	13475
#	29244
#	44542
#	58112
#	74540
#	94659
#	109315
#	124129
#	143886
#	157074
#	169739
#
# Disc length: 2508 seconds
#
# Revision: 0
# Processed by: cddbd v1.5.2PL0 Copyright (c) Steve Scherf et al.
# Submitted via: CDex 1.51
#
DISCID=bb09ca0c
DTITLE=Larry Bagby - Where I Stand
DYEAR=2005
DGENRE=Country
TTITLE0=On The Radio
TTITLE1=Back Home
TTITLE2=Hoping, Loving You
TTITLE3=Rain On My Parade
TTITLE4=Heaven Waits
TTITLE5=Precious Time
TTITLE6=Dad
TTITLE7=Small Apartment
TTITLE8=Into That Blue
TTITLE9=Heidi
TTITLE10=Player With A Heart
TTITLE11=Brad - Bonus Track
EXTD=YEAR: 2005
EXTT0=
EXTT1=
EXTT2=
EXTT3=
EXTT4=
EXTT5=
EXTT6=
EXTT7=
EXTT8=
EXTT9=
EXTT10=
EXTT11=
PLAYORDER=
